<?xml version="1.0" standalone="no"?>
<!DOCTYPE svg PUBLIC "-//W3C//DTD SVG 20010904//EN"
 "http://www.w3.org/TR/2001/REC-SVG-20010904/DTD/svg10.dtd">
<svg version="1.0" xmlns="http://www.w3.org/2000/svg"
 width="299.000000pt" height="302.000000pt" viewBox="0 0 299.000000 302.000000"
 preserveAspectRatio="xMidYMid meet">

<g transform="translate(0.000000,302.000000) scale(0.100000,-0.100000)"
fill="#000000" stroke="none">
<path d="M1108 2943 c7 -3 16 -2 19 1 4 3 -2 6 -13 5 -11 0 -14 -3 -6 -6z"/>
<path d="M948 2933 c6 -2 18 -2 25 0 6 3 1 5 -13 5 -14 0 -19 -2 -12 -5z"/>
<path d="M1203 2933 c9 -2 25 -2 35 0 9 3 1 5 -18 5 -19 0 -27 -2 -17 -5z"/>
<path d="M1288 2923 c7 -3 16 -2 19 1 4 3 -2 6 -13 5 -11 0 -14 -3 -6 -6z"/>
<path d="M848 2913 c7 -3 16 -2 19 1 4 3 -2 6 -13 5 -11 0 -14 -3 -6 -6z"/>
<path d="M1470 2857 c58 -32 135 -109 162 -161 11 -22 26 -72 33 -111 8 -43
14 -58 14 -37 1 32 1 32 54 32 34 0 70 -8 102 -24 59 -28 151 -113 194 -181
34 -54 43 -50 10 4 -36 60 -144 160 -201 186 -37 17 -70 25 -110 25 -53 0 -58
2 -58 23 0 12 -9 42 -20 66 -11 24 -19 45 -18 46 2 1 12 7 23 13 15 8 16 11 5
12 -9 0 -20 -4 -26 -10 -6 -6 -19 3 -38 26 -33 42 -25 58 37 73 30 6 34 9 17
10 -14 1 -42 -7 -63 -18 -36 -18 -37 -18 -67 4 -27 20 -29 24 -13 28 10 3 5 5
-12 5 -16 -1 -39 2 -50 6 -11 4 0 -4 25 -17z"/>
<path d="M1568 2873 c18 -2 45 -2 60 0 15 2 0 4 -33 4 -33 0 -45 -2 -27 -4z"/>
<path d="M1690 2860 c-11 -7 -2 -10 29 -10 48 0 51 4 11 13 -14 3 -32 2 -40
-3z"/>
<path d="M1749 2750 c45 -6 100 -22 139 -40 36 -17 67 -29 69 -27 2 2 -28 18
-66 36 -53 24 -88 33 -143 36 l-73 4 74 -9z"/>
<path d="M1955 2723 c24 -27 33 -43 25 -43 -10 -1 -8 -4 5 -12 11 -6 29 -18
40 -27 12 -9 9 -4 -6 11 -15 14 -26 28 -23 30 2 2 -15 22 -39 44 l-42 39 40
-42z"/>
<path d="M494 2718 l-19 -23 23 19 c21 18 27 26 19 26 -2 0 -12 -10 -23 -22z"/>
<path d="M1381 2682 c-13 -25 8 -56 35 -50 29 5 27 62 -3 66 -13 2 -26 -4 -32
-16z m49 -12 c0 -24 -29 -38 -40 -20 -12 19 -1 40 21 40 12 0 19 -7 19 -20z"/>
<path d="M1506 2634 c-5 -14 -4 -15 9 -4 17 14 19 20 6 20 -5 0 -12 -7 -15
-16z"/>
<path d="M1553 2643 c23 -6 21 -28 -5 -54 -23 -21 -23 -21 -1 -10 38 20 42 72
5 70 -15 -1 -15 -2 1 -6z"/>
<path d="M2065 2586 c10 -14 19 -26 22 -26 7 0 -17 39 -28 46 -6 3 -3 -5 6
-20z"/>
<path d="M2101 2515 c1 -19 18 -51 18 -35 0 8 -4 22 -9 30 -5 8 -9 11 -9 5z"/>
<path d="M1659 2459 c-3 -25 -24 -83 -45 -130 -38 -81 -39 -88 -39 -189 0 -88
4 -113 23 -157 13 -28 34 -61 47 -73 22 -20 27 -21 55 -10 34 14 100 83 100
104 0 8 -11 38 -25 68 -14 29 -25 47 -25 41 0 -7 10 -33 22 -58 21 -42 21 -48
8 -73 -9 -14 -35 -40 -58 -56 -53 -38 -66 -32 -107 50 -28 54 -30 67 -30 164
0 101 1 108 40 193 35 76 43 87 65 87 37 0 69 -27 91 -74 10 -22 19 -35 19
-28 1 43 -65 112 -106 112 -19 0 -23 6 -26 38 l-3 37 -6 -46z"/>
<path d="M2123 2395 c0 -27 2 -38 4 -22 2 15 2 37 0 50 -2 12 -4 0 -4 -28z"/>
<path d="M302 2325 c0 -16 2 -22 5 -12 2 9 2 23 0 30 -3 6 -5 -1 -5 -18z"/>
<path d="M2111 2304 c0 -11 3 -14 6 -6 3 7 2 16 -1 19 -3 4 -6 -2 -5 -13z"/>
<path d="M1310 2280 c-13 -25 -5 -56 16 -64 24 -9 54 12 54 37 0 46 -50 64
-70 27z m58 -16 c2 -11 -4 -27 -13 -34 -22 -19 -50 9 -40 39 9 29 49 25 53 -5z"/>
<path d="M1793 2270 c-41 -25 -53 -49 -51 -102 1 -39 2 -40 5 -8 6 65 13 78
47 99 77 48 175 7 209 -89 5 -13 6 -13 6 0 1 9 -11 33 -25 54 -44 64 -128 85
-191 46z"/>
<path d="M1862 2210 c-17 -28 -15 -39 3 -13 8 12 25 24 38 26 20 4 20 4 -3 6
-15 0 -30 -7 -38 -19z"/>
<path d="M2065 2204 c-9 -15 -12 -23 -6 -20 11 7 35 46 28 46 -3 0 -12 -12
-22 -26z"/>
<path d="M1841 2138 c2 -31 2 -31 6 -5 5 31 36 37 52 10 6 -10 11 -13 11 -7 0
17 -23 34 -47 34 -20 0 -23 -5 -22 -32z"/>
<path d="M2019 2153 c-13 -16 -12 -17 4 -4 9 7 17 15 17 17 0 8 -8 3 -21 -13z"/>
<path d="M2001 2084 c0 -11 3 -14 6 -6 3 7 2 16 -1 19 -3 4 -6 -2 -5 -13z"/>
<path d="M302 2070 c0 -14 2 -19 5 -12 2 6 2 18 0 25 -3 6 -5 1 -5 -13z"/>
<path d="M1384 2064 c-18 -14 -18 -14 6 -3 31 14 36 19 24 19 -6 0 -19 -7 -30
-16z"/>
<path d="M1265 1999 c-103 -56 -108 -66 -7 -15 59 30 116 67 102 65 -3 -1 -45
-23 -95 -50z"/>
<path d="M1393 1995 c0 -33 2 -45 4 -27 2 18 2 45 0 60 -2 15 -4 0 -4 -33z"/>
<path d="M1938 1968 c5 -71 10 -77 11 -15 0 31 -2 57 -7 57 -4 0 -6 -19 -4
-42z"/>
<path d="M1883 1993 c9 -2 23 -2 30 0 6 3 -1 5 -18 5 -16 0 -22 -2 -12 -5z"/>
<path d="M384 1946 c11 -9 24 -16 30 -16 12 0 7 5 -24 19 -24 11 -24 11 -6 -3z"/>
<path d="M1082 1927 l-32 -12 29 -13 c34 -15 61 -7 61 19 0 21 -11 23 -58 6z"/>
<path d="M1377 1909 c-11 -43 -65 -102 -125 -136 -31 -18 -52 -33 -47 -33 23
0 113 61 137 92 34 45 50 77 45 91 -2 7 -7 0 -10 -14z"/>
<path d="M372 1890 c0 -14 2 -19 5 -12 2 6 2 18 0 25 -3 6 -5 1 -5 -13z"/>
<path d="M498 1904 c6 -3 12 -14 12 -24 0 -24 31 -35 46 -16 6 9 22 16 35 17
13 1 5 5 -20 10 -23 4 -53 11 -65 14 -11 2 -15 2 -8 -1z"/>
<path d="M1008 1903 c6 -2 18 -2 25 0 6 3 1 5 -13 5 -14 0 -19 -2 -12 -5z"/>
<path d="M958 1893 c6 -2 18 -2 25 0 6 3 1 5 -13 5 -14 0 -19 -2 -12 -5z"/>
<path d="M903 1883 c9 -2 23 -2 30 0 6 3 -1 5 -18 5 -16 0 -22 -2 -12 -5z"/>
<path d="M698 1873 c34 -2 90 -2 125 0 34 2 6 3 -63 3 -69 0 -97 -1 -62 -3z"/>
<path d="M880 1853 c0 -16 48 -72 74 -84 13 -6 10 -2 -8 12 -15 12 -37 36 -47
53 -10 17 -19 26 -19 19z"/>
<path d="M1943 1800 c0 -36 2 -50 4 -32 2 17 2 47 0 65 -2 17 -4 3 -4 -33z"/>
<path d="M380 1834 c0 -6 7 -19 16 -30 14 -18 14 -18 3 6 -14 31 -19 36 -19
24z"/>
<path d="M740 1793 c0 -42 -63 -76 -155 -84 l-70 -6 65 -1 c52 -1 73 3 107 22
28 16 43 20 46 13 3 -7 8 5 12 26 4 21 5 41 1 44 -3 4 -6 -3 -6 -14z"/>
<path d="M1005 1745 c17 -8 41 -14 55 -14 15 0 5 6 -25 14 -62 17 -69 17 -30
0z"/>
<path d="M1158 1733 c6 -2 18 -2 25 0 6 3 1 5 -13 5 -14 0 -19 -2 -12 -5z"/>
<path d="M487 1719 c7 -7 15 -10 18 -7 3 3 -2 9 -12 12 -14 6 -15 5 -6 -5z"/>
<path d="M1108 1723 c6 -2 18 -2 25 0 6 3 1 5 -13 5 -14 0 -19 -2 -12 -5z"/>
<path d="M720 1711 c0 -11 -89 -144 -125 -186 l-26 -30 -36 40 c-26 30 -30 32
-15 9 41 -61 50 -63 89 -19 70 81 139 195 119 195 -3 0 -6 -4 -6 -9z"/>
<path d="M945 1700 c21 -24 110 -70 135 -69 8 0 -7 8 -33 19 -27 10 -65 31
-85 46 -32 24 -34 25 -17 4z"/>
<path d="M1953 1655 c0 -22 2 -30 4 -17 2 12 2 30 0 40 -3 9 -5 -1 -4 -23z"/>
<path d="M482 1640 c0 -14 2 -19 5 -12 2 6 2 18 0 25 -3 6 -5 1 -5 -13z"/>
<path d="M1604 1558 c-11 -13 -38 -48 -61 -78 -22 -30 -89 -107 -149 -170 -60
-63 -99 -107 -87 -97 20 17 22 17 67 -4 38 -19 45 -26 40 -45 -3 -12 -1 -25 5
-28 7 -5 8 -1 5 9 -8 20 11 42 56 65 45 23 131 95 161 135 12 17 -5 4 -38 -28
l-60 -59 -43 27 c-23 15 -39 22 -35 16 3 -6 20 -18 36 -26 36 -19 32 -26 -27
-59 l-46 -26 -41 21 c-23 12 -44 23 -46 25 -3 3 15 24 39 49 36 37 46 42 59
33 13 -10 14 -10 4 2 -10 11 -4 23 28 62 l41 48 26 -20 c15 -11 39 -29 55 -41
15 -11 27 -19 27 -16 0 3 -22 22 -49 43 l-50 37 31 44 c18 24 38 41 44 39 8
-3 11 1 7 10 -13 34 47 60 75 32 13 -13 17 -88 4 -88 -4 0 -12 3 -17 8 -6 4
-1 -2 10 -14 l20 -21 3 50 c5 79 -49 116 -94 65z"/>
<path d="M768 1493 c7 -3 16 -2 19 1 4 3 -2 6 -13 5 -11 0 -14 -3 -6 -6z"/>
<path d="M830 1487 c30 -15 37 -50 16 -82 -9 -14 -56 -51 -104 -84 -48 -32
-98 -72 -112 -87 l-25 -29 27 24 27 24 4 -79 3 -79 2 82 2 83 80 55 c89 63
120 97 120 131 0 27 -24 54 -48 54 -12 0 -9 -4 8 -13z"/>
<path d="M2036 1480 c-16 -5 -34 -6 -39 -3 -7 4 -8 -1 -3 -13 5 -10 13 -32 19
-49 22 -62 87 -141 87 -104 0 5 -4 8 -9 5 -10 -6 -41 36 -41 55 0 14 49 3 71
-17 63 -57 75 -391 23 -629 -33 -147 -127 -422 -181 -525 l-13 -25 0 30 c-1
17 -9 124 -18 238 -13 158 -15 211 -6 218 6 5 24 50 40 99 16 49 32 86 37 83
11 -7 -37 71 -78 124 -18 23 -35 40 -37 37 -3 -3 -67 25 -143 61 -136 64 -165
71 -215 55 -17 -6 -10 -7 23 -3 51 6 107 -11 107 -32 0 -7 -16 -64 -35 -126
-41 -134 -77 -311 -70 -342 5 -19 -45 -115 -133 -257 -7 -11 -12 -4 -20 30 -5
25 -10 37 -11 26 -2 -31 78 -266 117 -343 l37 -73 647 0 648 0 2 33 c0 17 0
39 -1 47 -1 8 -7 49 -12 90 -69 580 -97 690 -219 870 -55 82 -185 210 -256
253 -40 24 -72 54 -95 87 -55 81 -149 123 -223 100z m-198 -467 c6 -3 12 -7
12 -9 0 -3 -54 -115 -70 -146 -6 -10 -6 -28 0 -45 4 -15 11 -53 15 -83 3 -30
11 -60 16 -67 12 -13 -78 -323 -93 -323 -4 0 -8 67 -8 149 0 109 4 158 15 184
8 20 15 42 14 49 0 7 -7 -3 -14 -22 l-13 -35 -1 61 c-1 58 23 270 35 306 5 17
8 17 42 2 20 -9 43 -18 50 -21z"/>
<path d="M1741 754 c0 -11 3 -14 6 -6 3 7 2 16 -1 19 -3 4 -6 -2 -5 -13z"/>
<path d="M1671 1403 c-10 -26 -10 -27 4 -9 8 11 15 23 15 28 0 15 -7 8 -19
-19z"/>
<path d="M2102 1260 c0 -19 2 -27 5 -17 2 9 2 25 0 35 -3 9 -5 1 -5 -18z"/>
<path d="M2082 1188 c-17 -48 -75 -113 -128 -144 -50 -29 -60 -43 -13 -19 67
35 168 154 157 186 -2 6 -9 -5 -16 -23z"/>
<path d="M564 1158 l-29 -33 33 29 c30 28 37 36 29 36 -2 0 -16 -15 -33 -32z"/>
<path d="M1209 1143 c-13 -16 -12 -17 4 -4 9 7 17 15 17 17 0 8 -8 3 -21 -13z"/>
<path d="M383 1100 c0 -30 2 -43 4 -27 2 15 2 39 0 55 -2 15 -4 2 -4 -28z"/>
<path d="M1169 1113 c-13 -16 -12 -17 4 -4 9 7 17 15 17 17 0 8 -8 3 -21 -13z"/>
<path d="M519 1103 c-13 -16 -12 -17 4 -4 9 7 17 15 17 17 0 8 -8 3 -21 -13z"/>
<path d="M1020 1028 c-41 -22 -64 -36 -50 -32 31 8 89 37 115 58 29 22 19 18
-65 -26z"/>
<path d="M418 1003 c7 -3 16 -2 19 1 4 3 -2 6 -13 5 -11 0 -14 -3 -6 -6z"/>
<path d="M1225 989 c-4 -6 -4 -13 -1 -16 3 -4 6 -1 6 5 0 19 48 14 59 -5 6
-10 11 -13 11 -7 1 28 -60 48 -75 23z"/>
<path d="M910 980 c-8 -5 -10 -10 -5 -10 6 0 17 5 25 10 8 5 11 10 5 10 -5 0
-17 -5 -25 -10z"/>
<path d="M825 955 c-22 -8 -31 -13 -20 -13 11 0 36 6 55 13 45 17 18 17 -35 0z"/>
<path d="M1213 885 c0 -44 2 -61 4 -37 2 23 2 59 0 80 -2 20 -4 1 -4 -43z"/>
<path d="M1302 930 c0 -14 2 -19 5 -12 2 6 2 18 0 25 -3 6 -5 1 -5 -13z"/>
<path d="M1311 880 c0 -14 6 -47 13 -75 18 -64 19 -38 1 40 -7 33 -14 49 -14
35z"/>
<path d="M755 785 c-78 -45 -64 -45 21 0 36 19 60 35 52 35 -7 0 -40 -16 -73
-35z"/>
<path d="M867 796 c6 -31 -76 -106 -177 -161 -47 -26 -102 -63 -122 -83 l-38
-36 0 54 c0 36 6 60 18 74 15 18 15 19 0 8 -14 -12 -17 -10 -20 15 -2 15 -5
-8 -5 -52 -2 -78 13 -198 16 -131 1 39 57 91 148 139 118 62 123 47 21 -62
l-72 -76 77 76 76 76 28 -18 c15 -9 39 -20 53 -23 14 -4 1 5 -27 19 -29 15
-53 31 -53 36 0 5 57 10 128 11 l127 2 -133 6 -133 5 50 45 c49 44 49 45 73
27 13 -9 48 -20 78 -24 57 -6 104 -29 94 -44 -3 -5 1 -9 10 -9 8 0 46 -18 85
-41 64 -37 70 -43 74 -77 2 -20 4 -5 4 33 0 39 -2 57 -4 42 l-4 -28 -57 32
c-31 17 -75 45 -96 62 -28 22 -56 33 -98 39 -88 12 -135 52 -91 76 13 8 12 10
-9 10 -20 0 -24 -5 -21 -22z"/>
<path d="M988 813 c17 -2 47 -2 65 0 17 2 3 4 -33 4 -36 0 -50 -2 -32 -4z"/>
<path d="M1118 813 c7 -3 16 -2 19 1 4 3 -2 6 -13 5 -11 0 -14 -3 -6 -6z"/>
<path d="M1150 807 c0 -2 18 -16 40 -31 30 -20 43 -37 54 -73 8 -27 15 -41 15
-33 0 8 -8 42 -19 75 -10 33 -19 52 -19 42 -1 -17 -3 -17 -36 3 -19 12 -35 20
-35 17z"/>
<path d="M471 777 c2 -1 13 -9 24 -17 19 -14 19 -14 6 3 -7 9 -18 17 -24 17
-6 0 -8 -1 -6 -3z"/>
<path d="M443 725 c0 -22 2 -30 4 -17 2 12 2 30 0 40 -3 9 -5 -1 -4 -23z"/>
<path d="M2040 755 c0 -5 5 -17 10 -25 5 -8 10 -10 10 -5 0 6 -5 17 -10 25 -5
8 -10 11 -10 5z"/>
<path d="M1341 734 c0 -11 3 -14 6 -6 3 7 2 16 -1 19 -3 4 -6 -2 -5 -13z"/>
<path d="M512 720 c0 -14 2 -19 5 -12 2 6 2 18 0 25 -3 6 -5 1 -5 -13z"/>
<path d="M638 733 c7 -3 16 -2 19 1 4 3 -2 6 -13 5 -11 0 -14 -3 -6 -6z"/>
<path d="M584 698 l-29 -33 33 29 c30 28 37 36 29 36 -2 0 -16 -15 -33 -32z"/>
<path d="M1351 694 c0 -11 3 -14 6 -6 3 7 2 16 -1 19 -3 4 -6 -2 -5 -13z"/>
<path d="M2061 694 c0 -11 3 -14 6 -6 3 7 2 16 -1 19 -3 4 -6 -2 -5 -13z"/>
<path d="M1363 625 c0 -27 2 -38 4 -22 2 15 2 37 0 50 -2 12 -4 0 -4 -28z"/>
<path d="M2070 659 c0 -5 9 -9 20 -9 11 0 20 2 20 4 0 2 -9 6 -20 9 -11 3 -20
1 -20 -4z"/>
<path d="M432 640 c0 -14 2 -19 5 -12 2 6 2 18 0 25 -3 6 -5 1 -5 -13z"/>
<path d="M421 594 c0 -11 3 -14 6 -6 3 7 2 16 -1 19 -3 4 -6 -2 -5 -13z"/>
<path d="M908 583 c7 -3 16 -2 19 1 4 3 -2 6 -13 5 -11 0 -14 -3 -6 -6z"/>
<path d="M968 573 c7 -3 16 -2 19 1 4 3 -2 6 -13 5 -11 0 -14 -3 -6 -6z"/>
<path d="M1033 563 c9 -2 25 -2 35 0 9 3 1 5 -18 5 -19 0 -27 -2 -17 -5z"/>
<path d="M413 510 c0 -30 2 -43 4 -27 2 15 2 39 0 55 -2 15 -4 2 -4 -28z"/>
<path d="M1090 556 c0 -2 9 -6 20 -9 11 -3 18 -1 14 4 -5 9 -34 13 -34 5z"/>
<path d="M1372 535 c0 -16 2 -22 5 -12 2 9 2 23 0 30 -3 6 -5 -1 -5 -18z"/>
<path d="M1157 520 c12 -14 24 -37 28 -52 6 -24 49 -48 62 -35 2 3 -7 7 -21
11 -16 4 -28 16 -32 30 -3 13 -18 35 -32 48 l-27 23 22 -25z"/>
<path d="M1252 485 c0 -11 4 -31 8 -45 6 -20 8 -21 8 -5 0 11 -4 31 -8 45 -6
20 -8 21 -8 5z"/>
<path d="M1382 465 c0 -16 2 -22 5 -12 2 9 2 23 0 30 -3 6 -5 -1 -5 -18z"/>
<path d="M631 464 c0 -11 3 -14 6 -6 3 7 2 16 -1 19 -3 4 -6 -2 -5 -13z"/>
<path d="M543 400 c0 -25 2 -35 4 -22 2 12 2 32 0 45 -2 12 -4 2 -4 -23z"/>
<path d="M595 378 c-16 -15 -25 -28 -19 -28 6 0 19 9 30 21 17 19 19 19 31 3
7 -10 13 -14 13 -8 0 5 -6 16 -13 25 -11 14 -15 13 -42 -13z"/>
<path d="M1203 345 c0 -38 2 -53 4 -32 2 20 2 52 0 70 -2 17 -4 1 -4 -38z"/>
<path d="M1250 341 c-5 -11 -9 -44 -8 -73 l1 -53 6 60 c3 33 10 66 14 73 5 6
6 12 3 12 -3 0 -10 -9 -16 -19z"/>
<path d="M670 306 c0 -10 55 -113 75 -140 13 -17 16 -18 52 -3 21 9 32 16 25
16 -7 1 -23 -4 -34 -10 -26 -14 -37 -3 -83 81 -19 36 -35 61 -35 56z"/>
<path d="M422 265 c0 -16 2 -22 5 -12 2 9 2 23 0 30 -3 6 -5 -1 -5 -18z"/>
<path d="M1188 248 c-2 -12 -14 -28 -28 -35 -17 -9 -20 -13 -8 -13 22 0 48 27
48 51 0 26 -8 24 -12 -3z"/>
<path d="M622 235 c15 -17 36 -50 47 -75 11 -25 21 -39 21 -32 0 23 -37 86
-67 112 l-28 25 27 -30z"/>
<path d="M430 221 c0 -6 4 -13 10 -16 6 -3 7 1 4 9 -7 18 -14 21 -14 7z"/>
<path d="M1068 203 c12 -2 30 -2 40 0 9 3 -1 5 -23 4 -22 0 -30 -2 -17 -4z"/>
<path d="M1250 199 c0 -9 9 -36 21 -60 22 -47 20 -29 -5 36 -8 22 -15 33 -16
24z"/>
<path d="M1009 183 c-13 -17 -13 -17 6 -3 11 8 22 16 24 17 2 2 0 3 -6 3 -6 0
-17 -8 -24 -17z"/>
<path d="M460 170 c6 -11 13 -20 16 -20 2 0 0 9 -6 20 -6 11 -13 20 -16 20 -2
0 0 -9 6 -20z"/>
<path d="M863 183 c15 -2 39 -2 55 0 15 2 2 4 -28 4 -30 0 -43 -2 -27 -4z"/>
<path d="M972 158 l21 -21 -24 -20 c-17 -15 -19 -18 -6 -14 10 4 28 7 40 8 12
0 16 3 10 6 -7 2 -13 12 -13 20 0 9 -8 22 -17 29 -28 21 -35 16 -11 -8z"/>
<path d="M693 55 c0 -33 2 -45 4 -27 2 18 2 45 0 60 -2 15 -4 0 -4 -33z"/>
<path d="M1061 106 c2 -2 22 -6 44 -9 27 -4 35 -3 25 3 -14 9 -79 15 -69 6z"/>
<path d="M861 64 c-18 -15 -31 -35 -30 -47 1 -20 2 -20 8 3 4 14 22 35 40 47
19 13 29 23 23 23 -6 0 -24 -12 -41 -26z"/>
<path d="M1151 87 c2 -1 13 -9 24 -17 19 -14 19 -14 6 3 -7 9 -18 17 -24 17
-6 0 -8 -1 -6 -3z"/>
<path d="M1192 20 c0 -14 2 -19 5 -12 2 6 2 18 0 25 -3 6 -5 1 -5 -13z"/>
</g>
</svg>
